<svg width="25" height="24" viewBox="0 0 25 24" fill="none" xmlns="http://www.w3.org/2000/svg">
<path d="M4.67658 21.0966H20.2391C22.243 21.0966 23.2274 20.1356 23.2274 18.1669V9.30751C23.2274 7.33874 22.243 6.3778 20.2391 6.3778H4.67658C2.6961 6.3778 1.70001 7.33874 1.70001 9.30751V18.1669C1.70001 20.1356 2.6961 21.0966 4.67658 21.0966ZM11.0164 15.0263C10.3485 15.0263 9.96174 14.6513 9.96174 13.9833V13.2333C7.24297 13.0458 4.53594 12.4833 1.70001 11.4052V9.68251C5.22736 11.2411 8.70782 11.7919 12.4578 11.7919C16.2078 11.7919 19.7 11.2411 23.2274 9.68251V11.4052C20.3914 12.4833 17.6727 13.0458 14.9656 13.2333V13.9833C14.9656 14.6513 14.5789 15.0263 13.9109 15.0263H11.0164ZM7.72345 7.28016H9.34065V5.70984C9.34065 5.03016 9.73907 4.64344 10.4188 4.64344H14.4969C15.1883 4.64344 15.575 5.03016 15.575 5.70984V7.25671H17.2039V5.83874C17.2039 3.96374 16.243 3.12 14.4735 3.12H10.4422C8.78985 3.12 7.72345 3.96374 7.72345 5.83874V7.28016Z" fill="url(#paint0_linear_96_1121)"/>
<defs>
<linearGradient id="paint0_linear_96_1121" x1="1.89041" y1="3.32662" x2="21.1539" y2="27.9802" gradientUnits="userSpaceOnUse">
<stop stop-color="#F34384"/>
<stop offset="1" stop-color="#4510DB"/>
</linearGradient>
</defs>
</svg>
